<svg xmlns="http://www.w3.org/2000/svg" xmlns:xlink="http://www.w3.org/1999/xlink" width="500" zoomAndPan="magnify" viewBox="0 0 375 374.999991" height="500" preserveAspectRatio="xMidYMid meet" version="1.0"><defs><clipPath id="a0251e3b15"><path d="M 54.917969 54.917969 L 320.082031 54.917969 L 320.082031 320.082031 L 54.917969 320.082031 Z M 54.917969 54.917969 " clip-rule="nonzero"/></clipPath><clipPath id="d4eff3cabc"><path d="M 187.488281 0.00390625 L 374.988281 187.503906 L 187.488281 375.003906 L -0.0117188 187.503906 Z M 187.488281 0.00390625 " clip-rule="nonzero"/></clipPath><clipPath id="4054985c2a"><path d="M 187.488281 0.00390625 L 374.988281 187.503906 L 187.488281 375.003906 L -0.0117188 187.503906 Z M 187.488281 0.00390625 " clip-rule="nonzero"/></clipPath><clipPath id="34e5de4260"><path d="M 59 65 L 315 65 L 315 322 L 59 322 Z M 59 65 " clip-rule="nonzero"/></clipPath><clipPath id="6246e0ad11"><path d="M 26.367188 134.351562 L 246.792969 31.289062 L 349.855469 251.71875 L 129.429688 354.78125 Z M 26.367188 134.351562 " clip-rule="nonzero"/></clipPath><clipPath id="99a167281c"><path d="M 245.933594 31.691406 L 25.507812 134.753906 L 128.570312 355.183594 L 348.996094 252.121094 Z M 245.933594 31.691406 " clip-rule="nonzero"/></clipPath></defs><g clip-path="url(#a0251e3b15)"><path fill="#fd883d" d="M 54.917969 54.917969 L 320.082031 54.917969 L 320.082031 320.082031 L 54.917969 320.082031 Z M 54.917969 54.917969 " fill-opacity="1" fill-rule="nonzero"/></g><g clip-path="url(#d4eff3cabc)"><g clip-path="url(#4054985c2a)"><path fill="#fd883d" d="M 187.488281 0.00390625 L 374.988281 187.503906 L 187.488281 375.003906 L -0.0117188 187.503906 Z M 187.488281 0.00390625 " fill-opacity="1" fill-rule="nonzero"/></g></g><g clip-path="url(#34e5de4260)"><g clip-path="url(#6246e0ad11)"><g clip-path="url(#99a167281c)"><path fill="#ffffff" d="M 97.40625 278.8125 C 103.042969 265.257812 113.429688 243.070312 129.421875 218.820312 C 100.75 214.152344 77.394531 206.75 63.609375 201.707031 C 58.34375 199.78125 58.199219 192.425781 63.375 190.292969 C 76.945312 184.695312 99.976562 176.347656 128.433594 170.507812 C 111.460938 146.941406 100.179688 125.1875 93.996094 111.875 C 91.636719 106.796875 96.726562 101.488281 101.90625 103.636719 C 115.460938 109.273438 137.644531 119.660156 161.898438 135.648438 C 166.5625 106.980469 173.964844 83.625 179.003906 69.84375 C 180.929688 64.578125 188.28125 64.433594 190.417969 69.609375 C 196.015625 83.179688 204.363281 106.210938 210.203125 134.667969 C 233.769531 117.695312 255.523438 106.414062 268.835938 100.226562 C 273.914062 97.871094 279.222656 102.957031 277.074219 108.136719 C 271.4375 121.691406 261.050781 143.878906 245.058594 168.132812 C 273.730469 172.796875 297.085938 180.199219 310.871094 185.242188 C 316.136719 187.167969 316.28125 194.523438 311.105469 196.65625 C 297.535156 202.253906 274.503906 210.601562 246.046875 216.441406 C 263.019531 240.007812 274.300781 261.761719 280.484375 275.074219 C 282.84375 280.152344 277.753906 285.460938 272.574219 283.3125 C 259.019531 277.675781 236.835938 267.289062 212.582031 251.300781 C 207.917969 279.96875 200.515625 303.324219 195.476562 317.105469 C 193.550781 322.371094 186.199219 322.515625 184.0625 317.339844 C 178.464844 303.769531 170.117188 280.738281 164.277344 252.28125 C 140.710938 269.253906 118.957031 280.535156 105.644531 286.722656 C 100.558594 289.082031 95.253906 283.984375 97.40625 278.8125 Z M 197.765625 215.996094 C 210.203125 210.179688 215.570312 195.386719 209.753906 182.949219 C 203.941406 170.511719 189.144531 165.144531 176.707031 170.957031 C 164.269531 176.773438 158.902344 191.566406 164.71875 204.003906 C 170.535156 216.441406 185.328125 221.808594 197.765625 215.996094 Z M 197.765625 215.996094 " fill-opacity="1" fill-rule="nonzero"/></g></g></g></svg>