<svg xmlns="http://www.w3.org/2000/svg" xmlns:xlink="http://www.w3.org/1999/xlink" width="500" zoomAndPan="magnify" viewBox="0 0 375 374.999991" height="500" preserveAspectRatio="xMidYMid meet" version="1.0"><path fill="#d46bca" d="M 338.820312 171.394531 C 328.796875 184.769531 313.445312 195.632812 295.59375 201.96875 C 282.160156 206.734375 268.222656 208.621094 255.242188 207.539062 C 243.886719 217.769531 230.394531 225.152344 215.847656 229.1875 L 215.847656 234.917969 C 224.273438 241.242188 233.769531 246.09375 243.871094 249.191406 L 246.792969 250.085938 L 271.207031 250.085938 C 282.96875 250.085938 292.5 259.625 292.5 271.402344 L 292.5 353.691406 C 292.5 365.46875 282.96875 375.007812 271.207031 375.007812 L 108.539062 375.007812 C 96.777344 375.007812 87.242188 365.46875 87.242188 353.691406 L 87.242188 271.402344 C 87.242188 259.625 96.777344 250.085938 108.539062 250.085938 L 132.949219 250.085938 L 135.871094 249.191406 C 145.976562 246.09375 155.472656 241.234375 163.898438 234.917969 L 163.898438 229.21875 C 149.3125 225.195312 135.839844 217.8125 124.476562 207.539062 C 111.496094 208.621094 97.535156 206.726562 84.152344 201.976562 C 43.632812 187.585938 20.421875 152.234375 31.304688 121.496094 C 36.808594 105.96875 50.445312 94.195312 68.726562 89.195312 C 71.851562 88.34375 75.097656 87.695312 78.410156 87.246094 C 82.125 73.953125 94.3125 64.171875 108.761719 64.171875 L 114.910156 64.171875 C 120.582031 27.863281 152.039062 0 189.875 0 C 227.714844 0 259.167969 27.863281 264.84375 64.171875 L 270.992188 64.171875 C 285.4375 64.171875 297.628906 73.953125 301.34375 87.234375 C 323.761719 90.339844 341.734375 102.550781 348.4375 121.496094 C 354.109375 137.472656 350.601562 155.660156 338.820312 171.394531 Z M 338.820312 171.394531 " fill-opacity="1" fill-rule="nonzero"/><path fill="#553566" d="M 332.789062 127.046875 C 329.144531 116.746094 320.074219 109.0625 307.238281 105.398438 C 300.210938 103.386719 292.382812 102.703125 284.289062 103.300781 C 285.3125 101.277344 285.898438 99.003906 285.898438 96.582031 L 285.898438 95.710938 C 285.898438 87.484375 279.210938 80.789062 270.992188 80.789062 L 108.761719 80.789062 C 100.539062 80.789062 93.855469 87.484375 93.855469 95.710938 L 93.855469 96.582031 C 93.855469 99.003906 94.441406 101.277344 95.472656 103.300781 C 72.464844 101.621094 52.804688 110.554688 46.972656 127.039062 C 43.148438 137.839844 45.71875 150.050781 54.226562 161.398438 C 62.3125 172.1875 74.917969 181.027344 89.722656 186.28125 C 98.894531 189.539062 108.316406 191.191406 117.277344 191.191406 C 121.757812 191.191406 126.121094 190.773438 130.277344 189.9375 C 144.136719 204.929688 163.546875 214.699219 185.207031 215.945312 L 185.207031 238.386719 C 172.804688 250.734375 157.484375 259.949219 140.753906 265.074219 L 135.457031 266.703125 L 108.539062 266.703125 C 105.949219 266.703125 103.855469 268.800781 103.855469 271.394531 L 103.855469 353.683594 C 103.855469 356.277344 105.949219 358.375 108.539062 358.375 L 271.214844 358.375 C 273.804688 358.375 275.898438 356.277344 275.898438 353.683594 L 275.898438 271.402344 C 275.898438 268.808594 273.804688 266.710938 271.214844 266.710938 L 244.316406 266.710938 L 239.015625 265.082031 C 222.296875 259.960938 206.964844 250.75 194.5625 238.414062 L 194.5625 215.953125 C 216.222656 214.71875 235.632812 204.9375 249.492188 189.945312 C 253.660156 190.792969 258.019531 191.210938 262.507812 191.210938 C 271.445312 191.210938 280.839844 189.554688 290.039062 186.289062 C 304.84375 181.035156 317.449219 172.195312 325.53125 161.410156 C 334.042969 150.058594 336.613281 137.847656 332.789062 127.046875 Z M 103.222656 95.71875 C 103.222656 92.667969 105.710938 90.175781 108.761719 90.175781 L 271 90.175781 C 274.050781 90.175781 276.539062 92.667969 276.539062 95.71875 L 276.539062 96.589844 C 276.539062 99.640625 274.050781 102.132812 271 102.132812 L 108.761719 102.132812 C 105.710938 102.132812 103.222656 99.640625 103.222656 96.589844 Z M 92.839844 177.457031 C 79.757812 172.808594 68.699219 165.117188 61.714844 155.789062 C 55.148438 147.023438 53.042969 137.933594 55.796875 130.183594 C 61.1875 114.972656 84.46875 108.507812 108.640625 115.066406 L 108.640625 134.769531 C 108.640625 152.15625 114.117188 168.28125 123.4375 181.503906 C 113.835938 182.519531 103.199219 181.128906 92.839844 177.457031 Z M 266.527344 349.003906 L 113.222656 349.003906 L 113.222656 276.089844 L 266.511719 276.089844 L 266.511719 349.003906 Z M 218.003906 266.710938 L 161.75 266.710938 C 172.023438 261.546875 181.519531 254.867188 189.875 246.929688 C 198.234375 254.867188 207.730469 261.546875 218.003906 266.710938 Z M 189.875 206.71875 C 150.25 206.71875 118.011719 174.445312 118.011719 134.78125 L 118.011719 111.613281 C 118.011719 111.585938 118.011719 111.570312 118.011719 111.546875 L 118.011719 111.503906 L 261.742188 111.503906 L 261.742188 134.769531 C 261.742188 152.488281 255.300781 168.714844 244.65625 181.257812 C 244.375 181.515625 244.117188 181.804688 243.90625 182.128906 C 230.726562 197.1875 211.402344 206.71875 189.875 206.71875 Z M 318.039062 155.789062 C 311.050781 165.117188 299.996094 172.816406 286.914062 177.457031 C 276.511719 181.148438 265.90625 182.519531 256.316406 181.515625 C 265.636719 168.28125 271.113281 152.15625 271.113281 134.78125 L 271.113281 115.066406 C 295.550781 108.398438 318.53125 114.863281 323.957031 130.191406 C 326.707031 137.933594 324.605469 147.023438 318.039062 155.789062 Z M 142.015625 116.0625 C 133.835938 116.0625 127.175781 122.722656 127.175781 130.917969 C 127.175781 139.113281 133.828125 145.769531 142.015625 145.769531 C 150.199219 145.769531 156.851562 139.113281 156.851562 130.917969 C 156.851562 122.722656 150.191406 116.0625 142.015625 116.0625 Z M 142.015625 136.382812 C 139 136.382812 136.546875 133.925781 136.546875 130.910156 C 136.546875 127.890625 139 125.433594 142.015625 125.433594 C 145.03125 125.433594 147.484375 127.890625 147.484375 130.910156 C 147.484375 133.925781 145.03125 136.382812 142.015625 136.382812 Z M 189.875 116.0625 C 181.699219 116.0625 175.039062 122.722656 175.039062 130.917969 C 175.039062 139.113281 181.691406 145.769531 189.875 145.769531 C 198.0625 145.769531 204.714844 139.113281 204.714844 130.917969 C 204.714844 122.722656 198.054688 116.0625 189.875 116.0625 Z M 189.875 136.382812 C 186.859375 136.382812 184.40625 133.925781 184.40625 130.910156 C 184.40625 127.890625 186.859375 125.433594 189.875 125.433594 C 192.890625 125.433594 195.34375 127.890625 195.34375 130.910156 C 195.34375 133.925781 192.890625 136.382812 189.875 136.382812 Z M 252.578125 130.910156 C 252.578125 122.722656 245.925781 116.054688 237.738281 116.054688 C 229.554688 116.054688 222.902344 122.714844 222.902344 130.910156 C 222.902344 139.101562 229.554688 145.761719 237.738281 145.761719 C 245.925781 145.761719 252.578125 139.09375 252.578125 130.910156 Z M 237.738281 136.382812 C 234.722656 136.382812 232.269531 133.925781 232.269531 130.910156 C 232.269531 127.890625 234.722656 125.433594 237.738281 125.433594 C 240.753906 125.433594 243.207031 127.890625 243.207031 130.910156 C 243.207031 133.925781 240.753906 136.382812 237.738281 136.382812 Z M 231.351562 289.785156 L 148.402344 289.785156 C 139.585938 289.785156 132.414062 296.964844 132.414062 305.789062 L 132.414062 319.304688 C 132.414062 328.128906 139.585938 335.308594 148.402344 335.308594 L 231.351562 335.308594 C 240.167969 335.308594 247.339844 328.128906 247.339844 319.304688 L 247.339844 305.789062 C 247.339844 296.964844 240.167969 289.785156 231.351562 289.785156 Z M 237.96875 319.304688 C 237.96875 322.953125 235.003906 325.929688 231.351562 325.929688 L 148.402344 325.929688 C 144.757812 325.929688 141.785156 322.960938 141.785156 319.304688 L 141.785156 305.789062 C 141.785156 302.140625 144.75 299.164062 148.402344 299.164062 L 231.351562 299.164062 C 234.996094 299.164062 237.96875 302.132812 237.96875 305.789062 Z M 214.519531 62.910156 L 228.964844 37.867188 C 230.261719 35.625 233.121094 34.855469 235.363281 36.152344 C 237.601562 37.449219 238.367188 40.3125 237.074219 42.554688 L 222.628906 67.597656 C 221.757812 69.097656 220.183594 69.945312 218.566406 69.945312 C 217.773438 69.945312 216.964844 69.738281 216.222656 69.3125 C 213.992188 68.023438 213.222656 65.152344 214.519531 62.910156 Z M 142.679688 42.554688 C 141.382812 40.3125 142.152344 37.449219 144.390625 36.152344 C 146.632812 34.855469 149.5 35.625 150.789062 37.867188 L 165.234375 62.910156 C 166.527344 65.152344 165.761719 68.015625 163.523438 69.3125 C 162.78125 69.738281 161.980469 69.945312 161.1875 69.945312 C 159.570312 69.945312 157.992188 69.097656 157.125 67.597656 Z M 185.191406 57.5625 L 185.191406 28.640625 C 185.191406 26.046875 187.285156 23.953125 189.875 23.953125 C 192.464844 23.953125 194.5625 26.046875 194.5625 28.640625 L 194.5625 57.554688 C 194.5625 60.148438 192.464844 62.246094 189.875 62.246094 C 187.285156 62.253906 185.191406 60.148438 185.191406 57.5625 Z M 185.191406 57.5625 " fill-opacity="1" fill-rule="nonzero"/></svg>