<svg xmlns="http://www.w3.org/2000/svg" xmlns:xlink="http://www.w3.org/1999/xlink" width="500" zoomAndPan="magnify" viewBox="0 0 375 374.999991" height="500" preserveAspectRatio="xMidYMid meet" version="1.0"><path fill="#5da6bf" d="M 375 187.5 C 375 190.570312 374.925781 193.636719 374.773438 196.699219 C 374.625 199.765625 374.398438 202.824219 374.097656 205.878906 C 373.796875 208.933594 373.421875 211.976562 372.96875 215.011719 C 372.519531 218.046875 371.996094 221.070312 371.398438 224.078125 C 370.796875 227.089844 370.125 230.082031 369.378906 233.058594 C 368.636719 236.035156 367.816406 238.992188 366.925781 241.929688 C 366.035156 244.863281 365.074219 247.777344 364.039062 250.667969 C 363.003906 253.554688 361.902344 256.417969 360.726562 259.253906 C 359.554688 262.089844 358.308594 264.890625 356.996094 267.667969 C 355.6875 270.441406 354.308594 273.179688 352.859375 275.886719 C 351.414062 278.59375 349.902344 281.261719 348.324219 283.894531 C 346.746094 286.527344 345.105469 289.117188 343.402344 291.667969 C 341.695312 294.222656 339.929688 296.730469 338.101562 299.195312 C 336.273438 301.660156 334.386719 304.078125 332.4375 306.449219 C 330.492188 308.820312 328.488281 311.144531 326.429688 313.417969 C 324.367188 315.691406 322.253906 317.914062 320.082031 320.082031 C 317.914062 322.253906 315.691406 324.367188 313.417969 326.429688 C 311.144531 328.488281 308.820312 330.492188 306.449219 332.4375 C 304.078125 334.386719 301.660156 336.273438 299.195312 338.101562 C 296.730469 339.929688 294.222656 341.695312 291.667969 343.402344 C 289.117188 345.105469 286.527344 346.746094 283.894531 348.324219 C 281.261719 349.902344 278.59375 351.414062 275.886719 352.859375 C 273.179688 354.308594 270.441406 355.6875 267.667969 356.996094 C 264.890625 358.308594 262.089844 359.554688 259.253906 360.726562 C 256.417969 361.902344 253.554688 363.003906 250.667969 364.039062 C 247.777344 365.074219 244.863281 366.035156 241.929688 366.925781 C 238.992188 367.816406 236.035156 368.636719 233.058594 369.378906 C 230.082031 370.125 227.089844 370.796875 224.078125 371.398438 C 221.070312 371.996094 218.046875 372.519531 215.011719 372.96875 C 211.976562 373.421875 208.933594 373.796875 205.878906 374.097656 C 202.824219 374.398438 199.765625 374.625 196.699219 374.773438 C 193.636719 374.925781 190.570312 375 187.5 375 C 184.429688 375 181.363281 374.925781 178.300781 374.773438 C 175.234375 374.625 172.175781 374.398438 169.121094 374.097656 C 166.066406 373.796875 163.023438 373.421875 159.988281 372.96875 C 156.953125 372.519531 153.929688 371.996094 150.921875 371.398438 C 147.910156 370.796875 144.917969 370.125 141.941406 369.378906 C 138.964844 368.636719 136.007812 367.816406 133.070312 366.925781 C 130.136719 366.035156 127.222656 365.074219 124.332031 364.039062 C 121.445312 363.003906 118.582031 361.902344 115.746094 360.726562 C 112.910156 359.554688 110.105469 358.308594 107.332031 356.996094 C 104.558594 355.6875 101.820312 354.308594 99.113281 352.859375 C 96.40625 351.414062 93.738281 349.902344 91.105469 348.324219 C 88.472656 346.746094 85.882812 345.105469 83.332031 343.402344 C 80.777344 341.695312 78.269531 339.929688 75.804688 338.101562 C 73.339844 336.273438 70.921875 334.386719 68.550781 332.4375 C 66.179688 330.492188 63.855469 328.488281 61.582031 326.429688 C 59.308594 324.367188 57.085938 322.253906 54.917969 320.082031 C 52.746094 317.914062 50.632812 315.691406 48.570312 313.417969 C 46.511719 311.144531 44.507812 308.820312 42.558594 306.449219 C 40.613281 304.078125 38.726562 301.660156 36.898438 299.195312 C 35.070312 296.730469 33.304688 294.222656 31.597656 291.667969 C 29.894531 289.117188 28.253906 286.527344 26.675781 283.894531 C 25.097656 281.261719 23.585938 278.59375 22.140625 275.886719 C 20.691406 273.179688 19.3125 270.441406 18.003906 267.667969 C 16.691406 264.890625 15.445312 262.089844 14.273438 259.253906 C 13.097656 256.417969 11.996094 253.554688 10.960938 250.667969 C 9.925781 247.777344 8.964844 244.863281 8.074219 241.929688 C 7.183594 238.992188 6.363281 236.035156 5.621094 233.058594 C 4.875 230.082031 4.203125 227.089844 3.601562 224.078125 C 3.003906 221.070312 2.480469 218.046875 2.03125 215.011719 C 1.578125 211.976562 1.203125 208.933594 0.902344 205.878906 C 0.601562 202.824219 0.375 199.765625 0.226562 196.699219 C 0.0742188 193.636719 0 190.570312 0 187.5 C 0 184.429688 0.0742188 181.363281 0.226562 178.300781 C 0.375 175.234375 0.601562 172.175781 0.902344 169.121094 C 1.203125 166.066406 1.578125 163.023438 2.03125 159.988281 C 2.480469 156.953125 3.003906 153.929688 3.601562 150.921875 C 4.203125 147.910156 4.875 144.917969 5.621094 141.941406 C 6.363281 138.964844 7.183594 136.007812 8.074219 133.070312 C 8.964844 130.136719 9.925781 127.222656 10.960938 124.332031 C 11.996094 121.445312 13.097656 118.582031 14.273438 115.746094 C 15.445312 112.910156 16.691406 110.105469 18.003906 107.332031 C 19.3125 104.558594 20.691406 101.820312 22.140625 99.113281 C 23.585938 96.40625 25.097656 93.738281 26.675781 91.105469 C 28.253906 88.472656 29.894531 85.882812 31.597656 83.332031 C 33.304688 80.777344 35.070312 78.269531 36.898438 75.804688 C 38.726562 73.339844 40.613281 70.921875 42.558594 68.550781 C 44.507812 66.179688 46.511719 63.855469 48.570312 61.582031 C 50.632812 59.308594 52.746094 57.085938 54.917969 54.917969 C 57.085938 52.746094 59.308594 50.632812 61.582031 48.570312 C 63.855469 46.511719 66.179688 44.507812 68.550781 42.558594 C 70.921875 40.613281 73.339844 38.726562 75.804688 36.898438 C 78.269531 35.070312 80.777344 33.304688 83.332031 31.597656 C 85.882812 29.894531 88.472656 28.253906 91.105469 26.675781 C 93.738281 25.097656 96.40625 23.585938 99.113281 22.140625 C 101.820312 20.691406 104.558594 19.3125 107.332031 18.003906 C 110.105469 16.691406 112.910156 15.445312 115.746094 14.273438 C 118.582031 13.097656 121.445312 11.996094 124.332031 10.960938 C 127.222656 9.925781 130.136719 8.964844 133.070312 8.074219 C 136.007812 7.183594 138.964844 6.363281 141.941406 5.617188 C 144.917969 4.875 147.910156 4.203125 150.921875 3.601562 C 153.929688 3.003906 156.953125 2.480469 159.988281 2.03125 C 163.023438 1.578125 166.066406 1.203125 169.121094 0.902344 C 172.175781 0.601562 175.234375 0.375 178.300781 0.226562 C 181.363281 0.0742188 184.429688 0 187.5 0 C 190.570312 0 193.636719 0.0742188 196.699219 0.226562 C 199.765625 0.375 202.824219 0.601562 205.878906 0.902344 C 208.933594 1.203125 211.976562 1.578125 215.011719 2.03125 C 218.046875 2.480469 221.070312 3.003906 224.078125 3.601562 C 227.089844 4.203125 230.082031 4.875 233.058594 5.617188 C 236.035156 6.363281 238.992188 7.183594 241.929688 8.074219 C 244.863281 8.964844 247.777344 9.925781 250.667969 10.960938 C 253.554688 11.996094 256.417969 13.097656 259.253906 14.273438 C 262.089844 15.445312 264.890625 16.691406 267.667969 18.003906 C 270.441406 19.3125 273.179688 20.691406 275.886719 22.140625 C 278.59375 23.585938 281.261719 25.097656 283.894531 26.675781 C 286.527344 28.253906 289.117188 29.894531 291.667969 31.597656 C 294.222656 33.304688 296.730469 35.070312 299.195312 36.898438 C 301.660156 38.726562 304.078125 40.613281 306.449219 42.558594 C 308.820312 44.507812 311.144531 46.511719 313.417969 48.570312 C 315.691406 50.632812 317.914062 52.746094 320.082031 54.917969 C 322.253906 57.085938 324.367188 59.308594 326.429688 61.582031 C 328.488281 63.855469 330.492188 66.179688 332.4375 68.550781 C 334.386719 70.921875 336.273438 73.339844 338.101562 75.804688 C 339.929688 78.269531 341.695312 80.777344 343.402344 83.332031 C 345.105469 85.882812 346.746094 88.472656 348.324219 91.105469 C 349.902344 93.738281 351.414062 96.40625 352.859375 99.113281 C 354.308594 101.820312 355.6875 104.558594 356.996094 107.332031 C 358.308594 110.105469 359.554688 112.910156 360.726562 115.746094 C 361.902344 118.582031 363.003906 121.445312 364.039062 124.332031 C 365.074219 127.222656 366.035156 130.136719 366.925781 133.070312 C 367.816406 136.007812 368.636719 138.964844 369.378906 141.941406 C 370.125 144.917969 370.796875 147.910156 371.398438 150.921875 C 371.996094 153.929688 372.519531 156.953125 372.96875 159.988281 C 373.421875 163.023438 373.796875 166.066406 374.097656 169.121094 C 374.398438 172.175781 374.625 175.234375 374.773438 178.300781 C 374.925781 181.363281 375 184.429688 375 187.5 Z M 375 187.5 " fill-opacity="1" fill-rule="nonzero"/><path fill="#faefe6" d="M 177.644531 189.046875 C 178.066406 188.21875 178.140625 187.289062 177.855469 186.421875 C 177.578125 185.566406 176.976562 184.867188 176.167969 184.460938 C 175.679688 184.214844 175.164062 184.085938 174.628906 184.085938 C 173.332031 184.085938 172.164062 184.800781 171.578125 185.949219 C 171.164062 186.757812 171.089844 187.679688 171.367188 188.550781 C 171.652344 189.421875 172.246094 190.125 173.054688 190.53125 C 173.542969 190.777344 174.058594 190.90625 174.601562 190.90625 C 175.890625 190.90625 177.050781 190.191406 177.636719 189.046875 Z M 177.644531 189.046875 " fill-opacity="1" fill-rule="nonzero"/><path fill="#faefe6" d="M 158.976562 183.515625 C 158.03125 183.515625 157.109375 183.855469 156.390625 184.46875 C 154.71875 185.886719 154.515625 188.40625 155.933594 190.085938 C 156.691406 190.972656 157.800781 191.484375 158.984375 191.484375 C 159.929688 191.484375 160.84375 191.144531 161.558594 190.53125 C 162.375 189.824219 162.871094 188.859375 162.953125 187.785156 C 163.035156 186.734375 162.699219 185.714844 162.015625 184.921875 C 161.25 184.019531 160.148438 183.511719 158.976562 183.511719 Z M 158.976562 183.515625 " fill-opacity="1" fill-rule="nonzero"/><path fill="#faefe6" d="M 140.566406 182.378906 C 139.351562 182.378906 138.171875 182.8125 137.25 183.609375 C 136.207031 184.484375 135.578125 185.707031 135.464844 187.050781 C 135.351562 188.421875 135.78125 189.765625 136.679688 190.816406 C 137.648438 191.960938 139.066406 192.621094 140.566406 192.621094 C 141.78125 192.621094 142.957031 192.1875 143.878906 191.398438 C 144.9375 190.507812 145.574219 189.261719 145.679688 187.898438 C 145.785156 186.539062 145.351562 185.226562 144.457031 184.199219 C 143.476562 183.039062 142.066406 182.386719 140.566406 182.386719 Z M 140.566406 182.378906 " fill-opacity="1" fill-rule="nonzero"/><path fill="#faefe6" d="M 203.585938 186.421875 C 203.308594 185.566406 202.71875 184.875 201.921875 184.476562 C 201.421875 184.222656 200.894531 184.09375 200.355469 184.09375 C 199.074219 184.09375 197.910156 184.800781 197.339844 185.941406 C 196.914062 186.765625 196.835938 187.671875 197.109375 188.527344 C 197.386719 189.40625 197.992188 190.109375 198.816406 190.53125 C 199.304688 190.777344 199.824219 190.90625 200.363281 190.90625 C 201.652344 190.90625 202.808594 190.199219 203.371094 189.058594 C 203.796875 188.21875 203.871094 187.289062 203.585938 186.421875 Z M 203.585938 186.421875 " fill-opacity="1" fill-rule="nonzero"/><path fill="#faefe6" d="M 262.761719 185.160156 C 262.132812 183.238281 260.796875 181.6875 258.988281 180.773438 C 257.902344 180.21875 256.746094 179.941406 255.554688 179.941406 C 252.699219 179.941406 250.117188 181.523438 248.820312 184.066406 C 246.953125 187.769531 248.445312 192.335938 252.148438 194.21875 C 253.222656 194.765625 254.371094 195.046875 255.5625 195.046875 C 258.421875 195.046875 261.007812 193.460938 262.3125 190.914062 C 263.226562 189.121094 263.386719 187.074219 262.761719 185.152344 Z M 262.761719 185.160156 " fill-opacity="1" fill-rule="nonzero"/><path fill="#faefe6" d="M 122.828125 180.773438 C 121.746094 180.226562 120.601562 179.949219 119.398438 179.949219 C 116.542969 179.949219 113.96875 181.523438 112.6875 184.066406 C 110.789062 187.785156 112.265625 192.34375 115.964844 194.234375 C 117.039062 194.78125 118.191406 195.058594 119.386719 195.058594 C 122.25 195.058594 124.824219 193.484375 126.105469 190.941406 C 127.027344 189.136719 127.191406 187.09375 126.570312 185.175781 C 125.949219 183.253906 124.621094 181.695312 122.828125 180.78125 Z M 122.828125 180.773438 " fill-opacity="1" fill-rule="nonzero"/><path fill="#faefe6" d="M 234.40625 182.378906 C 233.191406 182.378906 232.003906 182.8125 231.074219 183.609375 C 228.929688 185.421875 228.667969 188.664062 230.488281 190.824219 C 231.464844 191.953125 232.898438 192.613281 234.40625 192.613281 C 235.621094 192.613281 236.804688 192.179688 237.734375 191.386719 C 238.769531 190.5 239.40625 189.246094 239.503906 187.867188 C 239.609375 186.511719 239.183594 185.199219 238.296875 184.175781 C 237.316406 183.03125 235.898438 182.371094 234.398438 182.371094 Z M 234.40625 182.378906 " fill-opacity="1" fill-rule="nonzero"/><path fill="#faefe6" d="M 218.578125 190.53125 C 219.398438 189.832031 219.890625 188.859375 219.96875 187.792969 C 220.050781 186.742188 219.710938 185.722656 219.03125 184.925781 C 218.265625 184.035156 217.15625 183.523438 215.992188 183.523438 C 215.039062 183.523438 214.140625 183.855469 213.40625 184.476562 C 212.601562 185.160156 212.113281 186.121094 212.03125 187.175781 C 211.949219 188.242188 212.28125 189.269531 212.976562 190.078125 C 213.742188 190.980469 214.84375 191.488281 216.015625 191.488281 C 216.96875 191.488281 217.859375 191.160156 218.585938 190.539062 Z M 218.578125 190.53125 " fill-opacity="1" fill-rule="nonzero"/><path fill="#faefe6" d="M 185.46875 187.484375 C 185.46875 187.703125 185.488281 187.921875 185.558594 188.136719 C 185.714844 188.632812 186.050781 189.039062 186.511719 189.285156 C 186.523438 189.292969 186.539062 189.308594 186.5625 189.316406 C 186.703125 189.390625 186.855469 189.441406 187.003906 189.480469 C 187.078125 189.496094 187.15625 189.496094 187.230469 189.511719 C 187.304688 189.515625 187.378906 189.539062 187.453125 189.539062 C 187.453125 189.539062 187.460938 189.539062 187.46875 189.539062 C 187.558594 189.539062 187.648438 189.523438 187.738281 189.515625 C 187.753906 189.515625 187.769531 189.515625 187.785156 189.511719 C 187.890625 189.496094 187.988281 189.488281 188.085938 189.457031 L 188.109375 189.457031 C 188.109375 189.457031 188.128906 189.441406 188.128906 189.441406 C 188.28125 189.390625 188.421875 189.324219 188.558594 189.246094 C 188.578125 189.234375 188.601562 189.21875 188.625 189.203125 C 188.730469 189.136719 188.820312 189.058594 188.910156 188.976562 C 188.917969 188.96875 188.933594 188.960938 188.941406 188.953125 C 188.949219 188.949219 188.953125 188.933594 188.96875 188.917969 C 189.082031 188.796875 189.179688 188.671875 189.261719 188.527344 C 189.261719 188.519531 189.277344 188.511719 189.277344 188.496094 C 189.285156 188.476562 189.300781 188.460938 189.316406 188.445312 C 189.390625 188.300781 189.433594 188.160156 189.472656 188.011719 C 189.472656 187.996094 189.472656 187.988281 189.472656 187.972656 C 189.511719 187.824219 189.523438 187.664062 189.515625 187.507812 C 189.515625 187.476562 189.515625 187.453125 189.515625 187.433594 C 189.515625 187.273438 189.488281 187.117188 189.441406 186.96875 C 189.441406 186.945312 189.441406 186.929688 189.425781 186.90625 C 189.375 186.757812 189.308594 186.609375 189.226562 186.480469 C 189.195312 186.433594 189.15625 186.398438 189.128906 186.351562 C 189.074219 186.277344 189.023438 186.203125 188.953125 186.136719 C 188.953125 186.136719 188.953125 186.128906 188.941406 186.121094 C 188.941406 186.121094 188.941406 186.121094 188.933594 186.113281 C 188.894531 186.074219 188.863281 186.046875 188.828125 186.007812 C 188.699219 185.894531 188.566406 185.789062 188.40625 185.707031 C 187.941406 185.46875 187.425781 185.421875 186.921875 185.574219 C 186.898438 185.574219 186.886719 185.574219 186.863281 185.585938 C 186.71875 185.632812 186.578125 185.699219 186.449219 185.773438 C 186.433594 185.773438 186.425781 185.789062 186.421875 185.796875 C 186.285156 185.878906 186.164062 185.976562 186.058594 186.089844 C 186.046875 186.113281 186.023438 186.128906 186.007812 186.148438 C 185.886719 186.285156 185.773438 186.425781 185.691406 186.585938 C 185.59375 186.773438 185.542969 186.976562 185.511719 187.175781 C 185.496094 187.273438 185.484375 187.363281 185.476562 187.460938 C 185.476562 187.460938 185.476562 187.476562 185.476562 187.484375 C 185.476562 187.484375 185.476562 187.5 185.476562 187.507812 Z M 185.46875 187.484375 " fill-opacity="1" fill-rule="nonzero"/><path fill="#faefe6" d="M 189.050781 171.578125 C 188.242188 171.164062 187.320312 171.089844 186.449219 171.367188 C 185.578125 171.652344 184.875 172.246094 184.46875 173.054688 C 184.222656 173.542969 184.09375 174.058594 184.09375 174.601562 C 184.09375 175.890625 184.808594 177.050781 185.953125 177.636719 C 186.78125 178.058594 187.710938 178.132812 188.578125 177.847656 C 189.433594 177.570312 190.132812 176.96875 190.539062 176.160156 C 190.785156 175.671875 190.914062 175.15625 190.914062 174.621094 C 190.914062 173.324219 190.199219 172.15625 189.050781 171.570312 Z M 189.050781 171.578125 " fill-opacity="1" fill-rule="nonzero"/><path fill="#faefe6" d="M 190.53125 156.390625 C 189.113281 154.71875 186.59375 154.515625 184.914062 155.933594 C 184.027344 156.691406 183.515625 157.800781 183.515625 158.984375 C 183.515625 159.929688 183.855469 160.84375 184.46875 161.558594 C 185.175781 162.375 186.140625 162.871094 187.214844 162.953125 C 188.265625 163.035156 189.285156 162.699219 190.078125 162.015625 C 190.980469 161.25 191.488281 160.148438 191.488281 158.976562 C 191.488281 158.03125 191.152344 157.109375 190.539062 156.390625 Z M 190.53125 156.390625 " fill-opacity="1" fill-rule="nonzero"/><path fill="#faefe6" d="M 191.390625 137.25 C 190.515625 136.207031 189.292969 135.578125 187.949219 135.464844 C 186.578125 135.351562 185.234375 135.78125 184.183594 136.679688 C 183.039062 137.648438 182.378906 139.066406 182.378906 140.566406 C 182.378906 141.78125 182.8125 142.957031 183.601562 143.878906 C 184.492188 144.9375 185.738281 145.574219 187.101562 145.679688 C 188.460938 145.785156 189.773438 145.351562 190.800781 144.457031 C 191.960938 143.476562 192.613281 142.066406 192.613281 140.566406 C 192.613281 139.351562 192.179688 138.171875 191.386719 137.25 Z M 191.390625 137.25 " fill-opacity="1" fill-rule="nonzero"/><path fill="#faefe6" d="M 184.46875 198.808594 C 184.222656 199.296875 184.09375 199.816406 184.09375 200.355469 C 184.09375 201.644531 184.800781 202.800781 185.941406 203.363281 C 186.78125 203.789062 187.710938 203.863281 188.578125 203.578125 C 189.433594 203.300781 190.125 202.710938 190.523438 201.914062 C 190.777344 201.414062 190.90625 200.886719 190.90625 200.347656 C 190.90625 199.066406 190.199219 197.902344 189.058594 197.332031 C 188.234375 196.90625 187.328125 196.828125 186.472656 197.101562 C 185.59375 197.378906 184.890625 197.984375 184.46875 198.808594 Z M 184.46875 198.808594 " fill-opacity="1" fill-rule="nonzero"/><path fill="#faefe6" d="M 190.925781 248.820312 C 187.222656 246.953125 182.65625 248.445312 180.773438 252.148438 C 180.226562 253.222656 179.949219 254.371094 179.949219 255.5625 C 179.949219 258.421875 181.53125 261.007812 184.078125 262.3125 C 185.871094 263.226562 187.921875 263.386719 189.839844 262.761719 C 191.761719 262.132812 193.3125 260.796875 194.226562 258.988281 C 194.78125 257.902344 195.058594 256.746094 195.058594 255.554688 C 195.058594 252.699219 193.476562 250.117188 190.933594 248.820312 Z M 190.925781 248.820312 " fill-opacity="1" fill-rule="nonzero"/><path fill="#faefe6" d="M 184.066406 126.113281 C 185.871094 127.035156 187.914062 127.199219 189.832031 126.578125 C 191.753906 125.953125 193.3125 124.628906 194.226562 122.835938 C 194.773438 121.753906 195.050781 120.609375 195.050781 119.40625 C 195.050781 116.550781 193.476562 113.976562 190.933594 112.695312 C 187.214844 110.796875 182.65625 112.273438 180.765625 115.972656 C 180.21875 117.046875 179.941406 118.199219 179.941406 119.390625 C 179.941406 122.257812 181.515625 124.828125 184.058594 126.113281 Z M 184.066406 126.113281 " fill-opacity="1" fill-rule="nonzero"/><path fill="#faefe6" d="M 183.609375 237.734375 C 184.492188 238.769531 185.746094 239.40625 187.125 239.503906 C 188.484375 239.609375 189.796875 239.183594 190.816406 238.296875 C 191.960938 237.316406 192.621094 235.898438 192.621094 234.398438 C 192.621094 233.183594 192.1875 231.996094 191.390625 231.066406 C 189.578125 228.921875 186.335938 228.660156 184.175781 230.484375 C 183.046875 231.457031 182.386719 232.890625 182.386719 234.398438 C 182.386719 235.613281 182.820312 236.796875 183.613281 237.726562 Z M 183.609375 237.734375 " fill-opacity="1" fill-rule="nonzero"/><path fill="#faefe6" d="M 184.46875 218.578125 C 185.167969 219.398438 186.140625 219.890625 187.207031 219.96875 C 188.257812 220.050781 189.277344 219.710938 190.074219 219.03125 C 190.964844 218.265625 191.476562 217.15625 191.476562 215.992188 C 191.476562 215.039062 191.144531 214.140625 190.523438 213.40625 C 189.839844 212.601562 188.878906 212.113281 187.824219 212.03125 C 186.757812 211.949219 185.730469 212.28125 184.921875 212.976562 C 184.019531 213.742188 183.511719 214.84375 183.511719 216.015625 C 183.511719 216.96875 183.839844 217.859375 184.460938 218.585938 Z M 184.46875 218.578125 " fill-opacity="1" fill-rule="nonzero"/><path fill="#faefe6" d="M 193.378906 179.4375 C 193.664062 180.316406 194.273438 181.027344 195.082031 181.441406 C 195.886719 181.84375 196.800781 181.914062 197.664062 181.636719 C 198.179688 181.460938 198.636719 181.183594 199.011719 180.808594 C 199.925781 179.894531 200.25 178.558594 199.851562 177.335938 C 199.574219 176.46875 198.976562 175.769531 198.15625 175.351562 C 197.347656 174.9375 196.425781 174.863281 195.5625 175.140625 C 195.046875 175.304688 194.585938 175.582031 194.203125 175.964844 C 193.289062 176.878906 192.976562 178.207031 193.371094 179.429688 Z M 193.378906 179.4375 " fill-opacity="1" fill-rule="nonzero"/><path fill="#faefe6" d="M 207.34375 171.300781 C 208.523438 171.398438 209.664062 170.976562 210.488281 170.152344 C 211.15625 169.484375 211.566406 168.59375 211.640625 167.648438 C 211.824219 165.464844 210.1875 163.539062 207.988281 163.351562 C 206.828125 163.261719 205.679688 163.6875 204.847656 164.519531 C 204.179688 165.1875 203.773438 166.074219 203.699219 167.011719 C 203.617188 168.082031 203.953125 169.125 204.652344 169.933594 C 205.34375 170.738281 206.296875 171.21875 207.34375 171.300781 Z M 207.34375 171.300781 " fill-opacity="1" fill-rule="nonzero"/><path fill="#faefe6" d="M 221.09375 149.21875 C 219.59375 149.09375 218.128906 149.632812 217.066406 150.691406 C 216.210938 151.546875 215.675781 152.683594 215.585938 153.898438 C 215.476562 155.28125 215.902344 156.609375 216.796875 157.648438 C 217.679688 158.683594 218.917969 159.308594 220.273438 159.40625 C 221.789062 159.53125 223.253906 158.992188 224.308594 157.933594 C 225.171875 157.074219 225.699219 155.933594 225.789062 154.726562 C 225.90625 153.359375 225.488281 152.054688 224.617188 151.027344 C 223.726562 149.976562 222.472656 149.332031 221.09375 149.21875 Z M 221.09375 149.21875 " fill-opacity="1" fill-rule="nonzero"/><path fill="#faefe6" d="M 181.640625 195.554688 C 181.363281 194.671875 180.78125 193.972656 179.976562 193.558594 C 179.160156 193.140625 178.230469 193.066406 177.359375 193.351562 C 176.835938 193.523438 176.378906 193.800781 176.003906 194.175781 C 175.09375 195.082031 174.773438 196.402344 175.175781 197.609375 C 175.46875 198.503906 176.078125 199.214844 176.894531 199.636719 C 177.699219 200.039062 178.597656 200.109375 179.445312 199.828125 C 179.976562 199.65625 180.441406 199.371094 180.824219 198.988281 C 181.734375 198.082031 182.046875 196.761719 181.648438 195.546875 Z M 181.640625 195.554688 " fill-opacity="1" fill-rule="nonzero"/><path fill="#faefe6" d="M 137.03125 228.449219 C 135.886719 228.824219 134.878906 229.441406 134.03125 230.28125 C 132.007812 232.304688 131.300781 235.253906 132.179688 237.976562 C 132.800781 239.886719 134.136719 241.449219 135.9375 242.363281 C 137.738281 243.277344 139.785156 243.425781 141.703125 242.796875 C 142.859375 242.421875 143.871094 241.800781 144.71875 240.960938 C 146.738281 238.941406 147.441406 235.996094 146.566406 233.28125 C 145.261719 229.335938 140.984375 227.167969 137.03125 228.449219 Z M 137.03125 228.449219 " fill-opacity="1" fill-rule="nonzero"/><path fill="#faefe6" d="M 232.230469 146.070312 C 234.03125 146.984375 236.070312 147.148438 237.984375 146.527344 C 239.128906 146.152344 240.140625 145.539062 240.988281 144.691406 C 243.015625 142.664062 243.710938 139.734375 242.828125 137.03125 C 241.539062 133.066406 237.269531 130.882812 233.316406 132.15625 C 232.175781 132.53125 231.164062 133.148438 230.316406 133.996094 C 228.292969 136.019531 227.585938 138.960938 228.480469 141.660156 C 229.101562 143.59375 230.429688 145.15625 232.230469 146.070312 Z M 232.230469 146.070312 " fill-opacity="1" fill-rule="nonzero"/><path fill="#faefe6" d="M 154.746094 215.542969 C 153.261719 215.429688 151.777344 215.976562 150.710938 217.042969 C 149.851562 217.90625 149.324219 219.046875 149.21875 220.265625 C 149.113281 221.625 149.550781 222.960938 150.449219 224.011719 C 151.335938 225.046875 152.566406 225.667969 153.914062 225.765625 C 155.421875 225.886719 156.886719 225.34375 157.949219 224.289062 C 158.8125 223.425781 159.335938 222.277344 159.433594 221.0625 C 159.667969 218.257812 157.558594 215.789062 154.746094 215.542969 Z M 154.746094 215.542969 " fill-opacity="1" fill-rule="nonzero"/><path fill="#faefe6" d="M 167.671875 203.683594 C 166.492188 203.585938 165.351562 204.007812 164.527344 204.832031 C 163.851562 205.507812 163.453125 206.371094 163.386719 207.328125 C 163.304688 208.402344 163.640625 209.4375 164.339844 210.253906 C 165.03125 211.058594 165.984375 211.539062 167.03125 211.621094 C 168.210938 211.710938 169.351562 211.289062 170.175781 210.464844 C 170.851562 209.789062 171.246094 208.925781 171.328125 207.960938 C 171.414062 206.910156 171.082031 205.890625 170.390625 205.078125 C 169.703125 204.269531 168.734375 203.773438 167.671875 203.691406 Z M 167.671875 203.683594 " fill-opacity="1" fill-rule="nonzero"/><path fill="#faefe6" d="M 199.027344 194.210938 C 198.113281 193.296875 196.785156 192.984375 195.5625 193.378906 C 194.683594 193.664062 193.972656 194.273438 193.558594 195.082031 C 193.15625 195.886719 193.085938 196.800781 193.363281 197.664062 C 193.539062 198.179688 193.816406 198.636719 194.191406 199.011719 C 195.105469 199.925781 196.441406 200.25 197.664062 199.851562 C 198.53125 199.574219 199.230469 198.976562 199.648438 198.15625 C 200.0625 197.347656 200.136719 196.425781 199.859375 195.5625 C 199.695312 195.046875 199.417969 194.585938 199.035156 194.203125 Z M 199.027344 194.210938 " fill-opacity="1" fill-rule="nonzero"/><path fill="#faefe6" d="M 207.988281 203.699219 C 206.917969 203.617188 205.875 203.953125 205.066406 204.652344 C 204.261719 205.34375 203.78125 206.296875 203.699219 207.34375 C 203.601562 208.523438 204.023438 209.664062 204.847656 210.488281 C 205.515625 211.15625 206.40625 211.566406 207.351562 211.640625 C 209.535156 211.824219 211.460938 210.1875 211.648438 207.988281 C 211.738281 206.828125 211.3125 205.679688 210.480469 204.847656 C 209.8125 204.179688 208.925781 203.773438 207.988281 203.699219 Z M 207.988281 203.699219 " fill-opacity="1" fill-rule="nonzero"/><path fill="#faefe6" d="M 221.101562 215.585938 C 219.71875 215.476562 218.390625 215.902344 217.351562 216.796875 C 216.316406 217.679688 215.691406 218.917969 215.59375 220.273438 C 215.46875 221.789062 216.007812 223.253906 217.066406 224.308594 C 217.925781 225.171875 219.066406 225.699219 220.273438 225.789062 C 221.640625 225.898438 222.945312 225.488281 223.972656 224.617188 C 225.023438 223.726562 225.667969 222.472656 225.78125 221.09375 C 225.90625 219.59375 225.367188 218.128906 224.308594 217.074219 C 223.453125 216.21875 222.316406 215.683594 221.101562 215.59375 Z M 221.101562 215.585938 " fill-opacity="1" fill-rule="nonzero"/><path fill="#faefe6" d="M 176.003906 180.816406 C 176.910156 181.726562 178.230469 182.039062 179.445312 181.640625 C 180.328125 181.363281 181.027344 180.78125 181.441406 179.976562 C 181.859375 179.160156 181.933594 178.230469 181.648438 177.359375 C 181.476562 176.835938 181.199219 176.378906 180.824219 176.003906 C 179.917969 175.09375 178.597656 174.773438 177.390625 175.175781 C 176.496094 175.46875 175.785156 176.078125 175.363281 176.894531 C 174.960938 177.699219 174.890625 178.597656 175.171875 179.445312 C 175.34375 179.976562 175.628906 180.441406 176.011719 180.824219 Z M 176.003906 180.816406 " fill-opacity="1" fill-rule="nonzero"/><path fill="#faefe6" d="M 134.03125 144.71875 C 136.050781 146.738281 138.996094 147.441406 141.710938 146.566406 C 145.65625 145.261719 147.824219 140.984375 146.542969 137.03125 C 146.167969 135.886719 145.550781 134.878906 144.710938 134.03125 C 142.6875 132.007812 139.738281 131.300781 137.015625 132.179688 C 135.105469 132.800781 133.546875 134.136719 132.628906 135.9375 C 131.714844 137.738281 131.566406 139.785156 132.195312 141.703125 C 132.570312 142.859375 133.191406 143.871094 134.03125 144.71875 Z M 134.03125 144.71875 " fill-opacity="1" fill-rule="nonzero"/><path fill="#faefe6" d="M 240.996094 230.316406 C 238.972656 228.292969 236.03125 227.585938 233.332031 228.480469 C 231.398438 229.101562 229.835938 230.429688 228.921875 232.230469 C 228.007812 234.03125 227.84375 236.070312 228.464844 237.984375 C 228.839844 239.128906 229.453125 240.140625 230.300781 240.988281 C 232.328125 243.015625 235.261719 243.710938 237.960938 242.828125 C 241.925781 241.539062 244.109375 237.269531 242.835938 233.316406 C 242.460938 232.175781 241.84375 231.164062 240.996094 230.316406 Z M 240.996094 230.316406 " fill-opacity="1" fill-rule="nonzero"/><path fill="#faefe6" d="M 153.9375 159.433594 C 156.742188 159.667969 159.210938 157.558594 159.457031 154.746094 C 159.570312 153.261719 159.023438 151.777344 157.957031 150.710938 C 157.09375 149.851562 155.953125 149.324219 154.734375 149.21875 C 153.375 149.113281 152.039062 149.550781 150.988281 150.449219 C 149.953125 151.335938 149.332031 152.566406 149.234375 153.914062 C 149.113281 155.421875 149.65625 156.886719 150.710938 157.949219 C 151.574219 158.8125 152.722656 159.335938 153.9375 159.433594 Z M 153.9375 159.433594 " fill-opacity="1" fill-rule="nonzero"/><path fill="#faefe6" d="M 167.039062 171.324219 C 168.089844 171.40625 169.109375 171.074219 169.921875 170.386719 C 170.730469 169.695312 171.226562 168.726562 171.308594 167.664062 C 171.40625 166.484375 170.984375 165.34375 170.160156 164.519531 C 169.484375 163.84375 168.621094 163.449219 167.664062 163.378906 C 166.589844 163.296875 165.554688 163.636719 164.738281 164.332031 C 163.933594 165.023438 163.453125 165.976562 163.371094 167.023438 C 163.28125 168.203125 163.703125 169.34375 164.527344 170.167969 C 165.203125 170.84375 166.066406 171.238281 167.03125 171.324219 Z M 167.039062 171.324219 " fill-opacity="1" fill-rule="nonzero"/></svg>