<svg xmlns="http://www.w3.org/2000/svg" xmlns:xlink="http://www.w3.org/1999/xlink" width="500" zoomAndPan="magnify" viewBox="0 0 375 374.999991" height="500" preserveAspectRatio="xMidYMid meet" version="1.0"><defs><clipPath id="f2b7ecdca5"><path d="M 38 197 L 103 197 L 103 247.089844 L 38 247.089844 Z M 38 197 " clip-rule="nonzero"/></clipPath><clipPath id="89f9c9ee6c"><path d="M 37 197 L 103 197 L 103 247.089844 L 37 247.089844 Z M 37 197 " clip-rule="nonzero"/></clipPath><clipPath id="79529fd924"><path d="M 23 127.839844 L 89 127.839844 L 89 178 L 23 178 Z M 23 127.839844 " clip-rule="nonzero"/></clipPath></defs><path fill="#3d3d3d" d="M 237.304688 137.882812 L 238.625 137.882812 L 240.074219 138.097656 L 241.488281 138.46875 C 241.945312 138.628906 242.386719 138.828125 242.8125 139.050781 C 242.714844 139.21875 242.640625 139.394531 242.589844 139.578125 L 242.308594 140.285156 L 242.054688 140.992188 L 241.835938 141.488281 C 241.042969 141.167969 240.222656 140.933594 239.382812 140.777344 C 238.707031 140.660156 238.023438 140.597656 237.335938 140.59375 C 236.613281 140.589844 235.898438 140.757812 235.257812 141.085938 C 234.960938 141.242188 234.714844 141.476562 234.550781 141.769531 C 234.390625 142.058594 234.320312 142.390625 234.34375 142.71875 C 234.34375 142.867188 234.375 143.015625 234.433594 143.152344 C 234.496094 143.292969 234.582031 143.414062 234.691406 143.519531 C 234.929688 143.773438 235.21875 143.972656 235.542969 144.105469 C 235.878906 144.300781 236.238281 144.457031 236.613281 144.566406 C 236.972656 144.703125 237.339844 144.816406 237.714844 144.90625 L 239.851562 145.582031 C 240.558594 145.789062 241.226562 146.101562 241.835938 146.507812 C 242.410156 146.871094 242.886719 147.371094 243.21875 147.957031 C 243.621094 148.636719 243.816406 149.417969 243.789062 150.203125 C 243.828125 150.929688 243.667969 151.652344 243.324219 152.296875 C 242.980469 152.941406 242.464844 153.484375 241.835938 153.871094 C 240.203125 154.753906 238.347656 155.167969 236.484375 155.070312 L 234.878906 155.070312 C 234.300781 155.03125 233.722656 154.960938 233.148438 154.855469 C 232.585938 154.753906 232.027344 154.621094 231.480469 154.457031 C 230.972656 154.292969 230.476562 154.085938 230.003906 153.839844 L 231.007812 151.4375 C 232.011719 151.890625 233.070312 152.210938 234.15625 152.390625 C 234.917969 152.5 235.683594 152.5625 236.453125 152.578125 C 237.300781 152.609375 238.144531 152.4375 238.910156 152.082031 C 239.234375 151.914062 239.5 151.652344 239.675781 151.335938 C 239.847656 151.019531 239.921875 150.65625 239.882812 150.296875 C 239.902344 150 239.835938 149.699219 239.695312 149.433594 C 239.492188 149.152344 239.234375 148.914062 238.941406 148.726562 L 237.839844 148.234375 L 236.582031 147.832031 L 234.378906 147.09375 C 233.710938 146.867188 233.074219 146.554688 232.488281 146.167969 C 231.957031 145.824219 231.507812 145.371094 231.167969 144.84375 C 230.804688 144.25 230.632812 143.5625 230.664062 142.871094 C 230.621094 142.164062 230.765625 141.457031 231.085938 140.820312 C 231.40625 140.179688 231.890625 139.636719 232.488281 139.238281 C 233.933594 138.371094 235.613281 137.953125 237.304688 138.035156 " fill-opacity="1" fill-rule="nonzero"/><path fill="#3d3d3d" d="M 251.5625 139.699219 C 252.570312 139.167969 253.621094 138.722656 254.710938 138.375 C 255.617188 138.046875 256.574219 137.871094 257.542969 137.851562 C 258.476562 137.808594 259.414062 137.964844 260.28125 138.3125 C 260.910156 138.578125 261.445312 139.015625 261.820312 139.574219 C 262.171875 140.105469 262.398438 140.707031 262.484375 141.332031 C 262.53125 142.019531 262.53125 142.707031 262.484375 143.394531 L 262.484375 154.886719 L 258.800781 154.886719 L 258.800781 144.195312 C 258.800781 143.671875 258.800781 143.179688 258.800781 142.746094 C 258.761719 142.378906 258.644531 142.023438 258.453125 141.699219 C 258.25 141.414062 257.964844 141.191406 257.636719 141.054688 C 257.167969 140.863281 256.664062 140.78125 256.15625 140.808594 C 255.359375 140.8125 254.570312 140.957031 253.828125 141.238281 C 253.035156 141.515625 252.265625 141.855469 251.53125 142.253906 L 251.53125 154.886719 L 247.660156 154.886719 L 247.660156 130.640625 L 251.40625 130.640625 L 251.40625 139.574219 Z M 251.5625 139.699219 " fill-opacity="1" fill-rule="nonzero"/><path fill="#3d3d3d" d="M 282.96875 146.597656 C 282.964844 147.636719 282.828125 148.671875 282.558594 149.679688 C 282.292969 150.683594 281.820312 151.628906 281.175781 152.453125 C 280.507812 153.28125 279.644531 153.9375 278.65625 154.363281 C 277.425781 154.878906 276.09375 155.121094 274.753906 155.070312 C 273.480469 155.113281 272.210938 154.882812 271.039062 154.390625 C 270.089844 153.980469 269.257812 153.347656 268.617188 152.542969 C 268.003906 151.71875 267.554688 150.789062 267.296875 149.800781 C 267.03125 148.722656 266.894531 147.617188 266.886719 146.507812 C 266.890625 145.410156 267.050781 144.324219 267.359375 143.269531 C 267.644531 142.257812 268.125 141.304688 268.773438 140.46875 C 269.449219 139.644531 270.308594 138.992188 271.292969 138.558594 C 272.460938 138.023438 273.746094 137.769531 275.039062 137.820312 C 276.328125 137.765625 277.613281 138.019531 278.78125 138.558594 C 279.765625 138.976562 280.621094 139.632812 281.269531 140.46875 C 281.878906 141.3125 282.316406 142.265625 282.558594 143.269531 C 282.839844 144.339844 282.976562 145.4375 282.96875 146.535156 Z M 279.128906 146.628906 C 279.175781 145.921875 279.175781 145.210938 279.128906 144.503906 C 279.046875 143.820312 278.855469 143.15625 278.5625 142.53125 C 278.257812 141.988281 277.839844 141.515625 277.335938 141.144531 C 276.730469 140.753906 276.015625 140.558594 275.289062 140.589844 C 274.554688 140.5625 273.828125 140.757812 273.210938 141.144531 C 272.667969 141.484375 272.230469 141.964844 271.953125 142.53125 C 271.613281 143.136719 271.378906 143.792969 271.261719 144.472656 C 271.132812 145.183594 271.070312 145.90625 271.070312 146.628906 C 271.023438 147.378906 271.023438 148.128906 271.070312 148.878906 C 271.171875 149.523438 271.382812 150.152344 271.703125 150.726562 C 271.996094 151.261719 272.445312 151.703125 272.992188 151.988281 C 273.613281 152.34375 274.320312 152.523438 275.039062 152.511719 C 275.742188 152.539062 276.441406 152.367188 277.050781 152.019531 C 277.5625 151.675781 277.972656 151.210938 278.246094 150.664062 C 278.566406 150.082031 278.769531 149.445312 278.84375 148.785156 C 278.910156 148.078125 278.910156 147.367188 278.84375 146.660156 " fill-opacity="1" fill-rule="nonzero"/><path fill="#3d3d3d" d="M 291.121094 139.851562 C 291.875 139.273438 292.714844 138.808594 293.605469 138.46875 C 294.445312 138.167969 295.328125 138.011719 296.21875 138.003906 C 297.3125 137.960938 298.394531 138.195312 299.367188 138.683594 C 300.191406 139.101562 300.886719 139.730469 301.382812 140.5 C 301.914062 141.347656 302.269531 142.289062 302.417969 143.273438 C 302.632812 144.285156 302.738281 145.320312 302.734375 146.355469 C 302.742188 147.515625 302.613281 148.671875 302.355469 149.804688 C 302.136719 150.773438 301.730469 151.695312 301.160156 152.515625 C 300.628906 153.324219 299.875 153.976562 298.988281 154.394531 C 298.011719 154.867188 296.929688 155.097656 295.839844 155.070312 L 294.738281 155.070312 L 293.542969 154.886719 C 293.113281 154.820312 292.691406 154.707031 292.285156 154.546875 C 291.886719 154.425781 291.503906 154.246094 291.152344 154.023438 L 291.152344 161.878906 L 287.25 161.878906 L 287.25 138.21875 L 290.867188 138.21875 L 290.867188 139.699219 Z M 294.867188 152.515625 C 295.375 152.515625 295.878906 152.410156 296.34375 152.207031 C 296.855469 151.996094 297.300781 151.65625 297.636719 151.222656 C 298.066406 150.6875 298.398438 150.082031 298.609375 149.433594 C 298.863281 148.425781 298.980469 147.390625 298.957031 146.355469 C 298.976562 145.460938 298.882812 144.570312 298.675781 143.703125 C 298.597656 143.066406 298.371094 142.453125 298.011719 141.917969 C 297.691406 141.523438 297.269531 141.226562 296.785156 141.054688 C 296.292969 140.875 295.769531 140.792969 295.242188 140.808594 C 294.886719 140.765625 294.527344 140.765625 294.171875 140.808594 C 293.785156 140.902344 293.410156 141.027344 293.039062 141.179688 L 291.71875 141.792969 C 291.445312 141.949219 291.191406 142.136719 290.964844 142.347656 L 290.964844 151.589844 C 291.191406 151.738281 291.433594 151.863281 291.6875 151.960938 C 292 152.105469 292.328125 152.21875 292.664062 152.300781 L 293.765625 152.546875 C 294.132812 152.566406 294.5 152.554688 294.867188 152.515625 Z M 294.867188 152.515625 " fill-opacity="1" fill-rule="nonzero"/><path fill="#3d3d3d" d="M 311.011719 139.851562 C 311.761719 139.269531 312.601562 138.800781 313.496094 138.46875 C 314.324219 138.167969 315.199219 138.011719 316.078125 138.003906 C 317.171875 137.960938 318.253906 138.195312 319.226562 138.683594 C 320.050781 139.101562 320.746094 139.730469 321.242188 140.5 C 321.757812 141.324219 322.121094 142.230469 322.308594 143.179688 C 322.507812 144.195312 322.613281 145.226562 322.625 146.261719 C 322.632812 147.421875 322.503906 148.578125 322.246094 149.710938 C 322.027344 150.703125 321.609375 151.648438 321.019531 152.484375 C 320.476562 153.285156 319.730469 153.933594 318.847656 154.363281 C 317.871094 154.832031 316.789062 155.066406 315.699219 155.039062 L 314.632812 155.039062 L 313.402344 154.855469 C 312.984375 154.785156 312.570312 154.671875 312.175781 154.515625 C 311.765625 154.394531 311.375 154.21875 311.011719 153.992188 L 311.011719 161.847656 L 307.140625 161.847656 L 307.140625 138.21875 L 310.761719 138.21875 L 310.761719 139.699219 Z M 314.820312 152.515625 C 315.339844 152.519531 315.855469 152.414062 316.332031 152.207031 C 316.84375 151.996094 317.285156 151.65625 317.621094 151.222656 C 318.023438 150.628906 318.324219 149.972656 318.503906 149.28125 C 318.742188 148.269531 318.847656 147.234375 318.816406 146.199219 C 318.835938 145.308594 318.742188 144.417969 318.535156 143.550781 C 318.394531 142.9375 318.125 142.363281 317.746094 141.855469 C 317.425781 141.464844 317 141.164062 316.519531 140.992188 C 316.027344 140.816406 315.503906 140.734375 314.976562 140.746094 C 314.621094 140.703125 314.261719 140.703125 313.90625 140.746094 L 312.773438 141.117188 C 312.417969 141.257812 312.070312 141.421875 311.734375 141.609375 C 311.457031 141.757812 311.203125 141.941406 310.980469 142.164062 L 310.980469 151.40625 C 311.203125 151.558594 311.449219 151.683594 311.703125 151.777344 C 312.011719 151.929688 312.339844 152.042969 312.679688 152.113281 L 313.75 152.515625 Z M 314.820312 152.515625 " fill-opacity="1" fill-rule="nonzero"/><path fill="#3d3d3d" d="M 331.71875 133.75 C 331.722656 134.035156 331.664062 134.3125 331.550781 134.574219 C 331.4375 134.832031 331.269531 135.066406 331.058594 135.261719 C 330.832031 135.480469 330.5625 135.652344 330.265625 135.765625 C 329.964844 135.875 329.648438 135.925781 329.328125 135.90625 C 329.023438 135.914062 328.722656 135.863281 328.441406 135.75 C 328.160156 135.640625 327.902344 135.472656 327.691406 135.261719 C 327.480469 135.066406 327.316406 134.832031 327.199219 134.574219 C 327.085938 134.3125 327.027344 134.035156 327.03125 133.75 C 327.023438 133.464844 327.078125 133.175781 327.191406 132.910156 C 327.304688 132.644531 327.476562 132.40625 327.691406 132.210938 C 327.921875 131.976562 328.203125 131.800781 328.511719 131.6875 C 328.824219 131.574219 329.15625 131.53125 329.484375 131.5625 C 329.804688 131.546875 330.125 131.59375 330.421875 131.707031 C 330.71875 131.816406 330.992188 131.988281 331.214844 132.210938 C 331.433594 132.40625 331.601562 132.644531 331.714844 132.910156 C 331.828125 133.175781 331.882812 133.464844 331.878906 133.75 Z M 327.597656 154.882812 L 327.597656 138.25 L 331.375 138.25 L 331.375 154.882812 Z M 327.597656 154.882812 " fill-opacity="1" fill-rule="nonzero"/><path fill="#3d3d3d" d="M 347.769531 154.886719 L 347.769531 144.195312 C 347.804688 143.703125 347.804688 143.210938 347.769531 142.71875 C 347.710938 142.34375 347.574219 141.988281 347.363281 141.671875 C 347.171875 141.371094 346.882812 141.144531 346.542969 141.023438 C 346.089844 140.855469 345.609375 140.785156 345.128906 140.808594 C 344.332031 140.816406 343.542969 140.960938 342.796875 141.238281 C 342.019531 141.523438 341.261719 141.863281 340.53125 142.253906 L 340.53125 154.886719 L 336.722656 154.886719 L 336.722656 138.25 L 340.34375 138.25 L 340.34375 139.699219 C 341.332031 139.105469 342.386719 138.628906 343.492188 138.28125 C 344.414062 137.976562 345.378906 137.808594 346.355469 137.789062 C 347.289062 137.746094 348.226562 137.90625 349.09375 138.25 C 349.730469 138.515625 350.277344 138.953125 350.664062 139.515625 C 351.039062 140.035156 351.277344 140.636719 351.359375 141.269531 C 351.472656 141.929688 351.523438 142.601562 351.515625 143.273438 L 351.515625 154.886719 Z M 347.769531 154.886719 " fill-opacity="1" fill-rule="nonzero"/><path fill="#3d3d3d" d="M 358.597656 148.171875 C 357.9375 147.832031 357.398438 147.308594 357.054688 146.660156 C 356.578125 145.835938 356.347656 144.898438 356.394531 143.949219 C 356.367188 142.980469 356.582031 142.019531 357.023438 141.148438 C 357.417969 140.390625 357.992188 139.738281 358.691406 139.238281 C 359.375 138.726562 360.15625 138.363281 360.988281 138.160156 C 361.847656 137.910156 362.738281 137.785156 363.632812 137.789062 C 364.238281 137.757812 364.847656 137.757812 365.457031 137.789062 C 365.992188 137.835938 366.519531 137.9375 367.03125 138.097656 L 372.820312 138.097656 L 372.820312 140.191406 L 370.398438 140.191406 L 370.398438 140.378906 C 370.789062 140.804688 371.058594 141.324219 371.183594 141.886719 C 371.34375 142.46875 371.429688 143.070312 371.4375 143.671875 C 371.453125 144.527344 371.261719 145.375 370.871094 146.136719 C 370.476562 146.851562 369.929688 147.472656 369.265625 147.957031 C 368.542969 148.445312 367.746094 148.820312 366.90625 149.0625 C 365.9375 149.308594 364.945312 149.421875 363.945312 149.402344 L 362.058594 149.402344 C 361.453125 149.394531 360.847656 149.46875 360.265625 149.617188 C 360.0625 149.679688 359.886719 149.800781 359.761719 149.96875 C 359.636719 150.132812 359.570312 150.335938 359.570312 150.542969 C 359.566406 150.699219 359.605469 150.851562 359.691406 150.984375 C 359.773438 151.117188 359.898438 151.21875 360.042969 151.28125 C 360.386719 151.480469 360.78125 151.578125 361.175781 151.558594 L 365.867188 151.558594 C 367.582031 151.457031 369.289062 151.890625 370.746094 152.792969 C 371.332031 153.226562 371.796875 153.800781 372.097656 154.457031 C 372.402344 155.113281 372.53125 155.832031 372.476562 156.550781 C 372.480469 157.324219 372.285156 158.089844 371.910156 158.769531 C 371.5 159.480469 370.914062 160.085938 370.210938 160.523438 C 369.3125 161.117188 368.308594 161.535156 367.25 161.757812 C 365.953125 162.074219 364.621094 162.21875 363.285156 162.1875 C 362.015625 162.222656 360.742188 162.089844 359.507812 161.789062 C 358.65625 161.59375 357.859375 161.214844 357.179688 160.679688 C 356.660156 160.28125 356.265625 159.746094 356.046875 159.136719 C 355.832031 158.566406 355.726562 157.960938 355.730469 157.351562 C 355.703125 156.523438 355.960938 155.710938 356.457031 155.039062 C 356.851562 154.460938 357.367188 153.96875 357.96875 153.59375 C 357.378906 153.507812 356.839844 153.214844 356.464844 152.761719 C 356.085938 152.3125 355.890625 151.742188 355.921875 151.160156 C 355.914062 150.746094 356 150.335938 356.171875 149.957031 C 356.308594 149.640625 356.511719 149.359375 356.769531 149.125 C 357.019531 148.898438 357.308594 148.710938 357.621094 148.570312 C 357.910156 148.417969 358.214844 148.292969 358.53125 148.203125 Z M 361.175781 154.148438 C 360.9375 154.230469 360.722656 154.367188 360.546875 154.546875 C 360.324219 154.742188 360.125 154.957031 359.949219 155.195312 C 359.777344 155.429688 359.640625 155.691406 359.539062 155.964844 C 359.496094 156.242188 359.496094 156.519531 359.539062 156.796875 C 359.488281 157.164062 359.488281 157.539062 359.539062 157.90625 C 359.671875 158.273438 359.914062 158.597656 360.234375 158.832031 C 360.636719 159.125 361.097656 159.335938 361.585938 159.445312 C 362.3125 159.640625 363.066406 159.722656 363.820312 159.691406 C 365.039062 159.761719 366.253906 159.484375 367.3125 158.890625 C 367.679688 158.671875 367.984375 158.367188 368.195312 158 C 368.402344 157.632812 368.511719 157.21875 368.511719 156.796875 C 368.5 156.472656 368.449219 156.152344 368.351562 155.84375 C 368.257812 155.527344 368.085938 155.242188 367.847656 155.011719 C 367.539062 154.738281 367.171875 154.527344 366.777344 154.394531 C 366.203125 154.203125 365.59375 154.117188 364.984375 154.148438 Z M 367.472656 143.765625 C 367.53125 143.355469 367.53125 142.941406 367.472656 142.535156 C 367.355469 142.136719 367.152344 141.769531 366.875 141.457031 C 366.542969 141.117188 366.148438 140.84375 365.707031 140.65625 C 365.15625 140.445312 364.570312 140.339844 363.976562 140.347656 C 363.484375 140.308594 362.992188 140.375 362.527344 140.53125 C 362.058594 140.691406 361.632812 140.941406 361.269531 141.269531 C 360.644531 141.953125 360.316406 142.847656 360.359375 143.765625 C 360.277344 144.214844 360.285156 144.675781 360.386719 145.121094 C 360.492188 145.5625 360.683594 145.984375 360.957031 146.351562 C 361.273438 146.664062 361.652344 146.902344 362.070312 147.054688 C 362.488281 147.210938 362.933594 147.273438 363.378906 147.246094 C 364.386719 147.277344 365.378906 147 366.210938 146.445312 C 366.597656 146.148438 366.898438 145.761719 367.09375 145.320312 C 367.285156 144.878906 367.359375 144.398438 367.3125 143.917969 " fill-opacity="1" fill-rule="nonzero"/><path fill="#3d3d3d" d="M 205.136719 169.085938 L 216.183594 169.085938 L 216.183594 204.300781 C 216.183594 207.6875 216.183594 210.183594 216.183594 211.753906 C 216.183594 213.324219 216.183594 214.402344 216.183594 215.019531 C 216.09375 218.015625 215.664062 220.992188 214.894531 223.890625 C 214.242188 226.292969 213.097656 228.535156 211.527344 230.484375 C 209.855469 232.496094 207.804688 234.167969 205.484375 235.414062 C 202.582031 236.980469 199.507812 238.230469 196.328125 239.140625 C 196.136719 238.742188 195.886719 238.21875 195.632812 237.570312 C 195.382812 236.921875 195.066406 236.214844 194.785156 235.507812 L 193.902344 233.441406 C 193.652344 232.765625 193.398438 232.273438 193.210938 231.871094 C 195.328125 230.71875 197.367188 229.429688 199.316406 228.019531 C 200.75 226.96875 202.003906 225.699219 203.03125 224.261719 C 203.941406 222.945312 204.566406 221.453125 204.855469 219.886719 C 205.113281 217.980469 205.210938 216.050781 205.136719 214.125 Z M 205.136719 169.085938 " fill-opacity="1" fill-rule="nonzero"/><path fill="#3d3d3d" d="M 217.542969 156.089844 C 217.554688 156.90625 217.390625 157.714844 217.066406 158.46875 C 216.742188 159.222656 216.257812 159.902344 215.652344 160.460938 C 215.011719 161.078125 214.25 161.558594 213.410156 161.875 C 212.570312 162.1875 211.671875 162.324219 210.773438 162.28125 C 209.886719 162.328125 209 162.191406 208.167969 161.875 C 207.339844 161.5625 206.585938 161.082031 205.960938 160.460938 C 205.367188 159.894531 204.902344 159.210938 204.585938 158.460938 C 204.273438 157.707031 204.121094 156.898438 204.132812 156.089844 C 204.113281 155.257812 204.265625 154.429688 204.578125 153.65625 C 204.890625 152.882812 205.363281 152.179688 205.960938 151.589844 C 206.585938 150.972656 207.339844 150.488281 208.167969 150.175781 C 209 149.863281 209.886719 149.726562 210.773438 149.773438 C 211.671875 149.734375 212.566406 149.878906 213.40625 150.191406 C 214.242188 150.503906 215.007812 150.980469 215.652344 151.589844 C 216.261719 152.175781 216.746094 152.875 217.070312 153.648438 C 217.394531 154.421875 217.554688 155.253906 217.542969 156.089844 Z M 217.542969 156.089844 " fill-opacity="1" fill-rule="nonzero"/><path fill="#3d3d3d" d="M 294.394531 193.023438 C 294.371094 195.3125 294.59375 197.59375 295.054688 199.832031 C 295.417969 201.691406 296.15625 203.460938 297.226562 205.039062 C 298.203125 206.503906 299.5625 207.683594 301.160156 208.460938 C 303.132812 209.335938 305.289062 209.757812 307.453125 209.691406 C 309.816406 209.703125 312.167969 209.457031 314.472656 208.953125 C 316.789062 208.414062 319.0625 207.703125 321.269531 206.828125 L 323.664062 214.035156 C 321.101562 215.3125 318.382812 216.265625 315.574219 216.867188 C 312.390625 217.617188 309.125 217.988281 305.851562 217.976562 C 302.117188 218.078125 298.402344 217.441406 294.929688 216.097656 C 292.246094 215.007812 289.882812 213.269531 288.066406 211.046875 C 286.265625 208.785156 284.988281 206.167969 284.324219 203.375 C 283.574219 200.246094 283.203125 197.039062 283.222656 193.828125 C 283.242188 190.9375 283.558594 188.058594 284.164062 185.230469 C 284.796875 182.265625 285.992188 179.445312 287.691406 176.914062 C 289.53125 174.253906 291.992188 172.058594 294.867188 170.503906 C 298.492188 168.679688 302.53125 167.789062 306.605469 167.917969 C 308.917969 167.933594 311.230469 168.078125 313.527344 168.347656 C 316.175781 168.703125 318.769531 169.34375 321.269531 170.257812 L 319.257812 177.960938 C 317.214844 177.289062 315.105469 176.84375 312.960938 176.636719 C 311.105469 176.636719 309.40625 176.390625 307.863281 176.390625 C 305.972656 176.324219 304.089844 176.699219 302.378906 177.488281 C 300.664062 178.273438 299.167969 179.449219 298.011719 180.917969 C 295.503906 184.460938 294.277344 188.722656 294.519531 193.023438 " fill-opacity="1" fill-rule="nonzero"/><path fill="#3d3d3d" d="M 372.824219 209.78125 L 372.824219 184.554688 C 372.882812 181.941406 372.457031 179.34375 371.566406 176.882812 C 370.820312 174.921875 369.585938 173.171875 367.976562 171.800781 C 366.34375 170.460938 364.414062 169.511719 362.34375 169.027344 C 359.902344 168.445312 357.398438 168.167969 354.886719 168.195312 C 351.40625 168.222656 347.941406 168.574219 344.53125 169.242188 C 341.207031 169.835938 337.964844 170.808594 334.867188 172.136719 L 335.875 175.589844 C 336.191406 176.757812 336.535156 177.929688 336.882812 179.039062 C 339.390625 178.21875 341.957031 177.589844 344.5625 177.160156 C 347.109375 176.71875 349.6875 176.492188 352.273438 176.480469 C 353.671875 176.316406 355.09375 176.425781 356.449219 176.808594 C 357.808594 177.191406 359.074219 177.832031 360.171875 178.699219 C 361.78125 180.882812 362.519531 183.566406 362.25 186.246094 L 362.25 188.894531 L 350.257812 189.667969 C 347.671875 189.796875 345.109375 190.199219 342.609375 190.867188 C 340.367188 191.453125 338.238281 192.398438 336.316406 193.671875 C 334.59375 194.835938 333.171875 196.375 332.160156 198.167969 C 331.089844 200.050781 330.558594 202.179688 330.621094 204.332031 C 330.640625 205.851562 330.863281 207.363281 331.28125 208.828125 C 331.75 210.472656 332.539062 212.011719 333.609375 213.355469 C 334.828125 214.839844 336.378906 216.03125 338.140625 216.835938 C 340.4375 217.839844 342.933594 218.3125 345.441406 218.222656 L 348.308594 218.222656 C 349.671875 218.125 351.019531 217.886719 352.335938 217.515625 C 354.003906 217.070312 355.617188 216.449219 357.152344 215.667969 C 359.058594 214.695312 360.835938 213.496094 362.4375 212.09375 L 362.660156 212.308594 C 362.574219 213.21875 362.714844 214.132812 363.074219 214.972656 C 363.429688 215.816406 363.988281 216.5625 364.703125 217.144531 C 366.246094 217.929688 367.972656 218.300781 369.707031 218.222656 C 370.761719 218.214844 371.8125 218.144531 372.855469 218.007812 Z M 362.25 205.253906 C 360.441406 206.863281 358.40625 208.214844 356.207031 209.257812 C 354.351562 210.140625 352.320312 210.625 350.257812 210.675781 C 349.160156 210.773438 348.058594 210.652344 347.007812 210.324219 C 345.960938 209.996094 344.988281 209.464844 344.152344 208.765625 C 342.8125 207.167969 342.148438 205.128906 342.296875 203.066406 C 342.25 202.113281 342.410156 201.164062 342.769531 200.277344 C 343.125 199.390625 343.671875 198.585938 344.375 197.921875 C 346.199219 196.457031 348.496094 195.667969 350.855469 195.703125 L 362.25 194.902344 Z M 362.25 205.253906 " fill-opacity="1" fill-rule="nonzero"/><path fill="#3d3d3d" d="M 266.761719 169.027344 L 261.222656 169.027344 L 261.222656 204.453125 C 259.265625 206.179688 257.019531 207.566406 254.582031 208.550781 C 252.699219 209.351562 250.683594 209.800781 248.632812 209.875 C 247.214844 209.941406 245.804688 209.679688 244.511719 209.105469 C 243.558594 208.632812 242.769531 207.890625 242.246094 206.980469 C 241.726562 206.023438 241.398438 204.976562 241.269531 203.898438 C 241.140625 202.628906 241.078125 201.355469 241.082031 200.078125 L 241.082031 169.273438 L 230.003906 169.273438 L 230.003906 202.484375 C 230.011719 204.429688 230.148438 206.375 230.410156 208.304688 C 230.65625 210.117188 231.3125 211.855469 232.332031 213.386719 C 233.433594 214.949219 234.945312 216.195312 236.707031 216.992188 C 239.210938 217.992188 241.902344 218.457031 244.605469 218.347656 C 245.65625 218.339844 246.710938 218.265625 247.753906 218.132812 C 249.144531 217.921875 250.515625 217.582031 251.84375 217.117188 C 253.417969 216.574219 254.945312 215.90625 256.40625 215.113281 C 258.128906 214.191406 259.726562 213.066406 261.160156 211.753906 L 261.410156 211.910156 C 261.539062 214.558594 262.261719 216.253906 263.582031 216.992188 C 265.214844 217.851562 267.054688 218.257812 268.902344 218.164062 C 269.953125 218.148438 271.003906 218.074219 272.050781 217.949219 L 272.050781 168.996094 L 266.761719 168.996094 " fill-opacity="1" fill-rule="nonzero"/><path fill="#3d3d3d" d="M 190.632812 156.085938 C 190.644531 156.90625 190.480469 157.714844 190.15625 158.46875 C 189.832031 159.222656 189.351562 159.898438 188.746094 160.460938 C 188.089844 161.085938 187.308594 161.566406 186.453125 161.878906 C 185.597656 162.195312 184.683594 162.328125 183.773438 162.28125 C 182.890625 162.324219 182.007812 162.183594 181.183594 161.871094 C 180.359375 161.554688 179.609375 161.078125 178.988281 160.460938 C 178.386719 159.898438 177.910156 159.21875 177.589844 158.464844 C 177.269531 157.710938 177.113281 156.902344 177.132812 156.085938 C 177.113281 155.253906 177.269531 154.425781 177.589844 153.652344 C 177.90625 152.878906 178.382812 152.175781 178.988281 151.589844 C 179.621094 150.988281 180.367188 150.515625 181.191406 150.203125 C 182.011719 149.890625 182.890625 149.742188 183.773438 149.773438 C 184.683594 149.730469 185.59375 149.867188 186.449219 150.179688 C 187.304688 150.492188 188.085938 150.972656 188.746094 151.589844 C 189.355469 152.175781 189.835938 152.875 190.160156 153.648438 C 190.484375 154.421875 190.644531 155.25 190.632812 156.085938 Z M 190.632812 156.085938 " fill-opacity="1" fill-rule="nonzero"/><path fill="#3d3d3d" d="M 178.234375 169.085938 L 178.234375 211.414062 C 178.144531 212.40625 178.300781 213.402344 178.691406 214.316406 C 179.078125 215.234375 179.6875 216.046875 180.46875 216.683594 C 182.148438 217.53125 184.023438 217.9375 185.910156 217.855469 C 186.964844 217.851562 188.015625 217.777344 189.058594 217.640625 L 189.058594 169.085938 Z M 178.234375 169.085938 " fill-opacity="1" fill-rule="nonzero"/><path fill="#3d3d3d" d="M 167.246094 208.121094 C 165.359375 208.582031 163.660156 208.921875 162.179688 209.199219 C 160.890625 209.429688 159.585938 209.5625 158.277344 209.597656 C 157.277344 209.726562 156.261719 209.609375 155.320312 209.253906 C 154.382812 208.898438 153.546875 208.320312 152.894531 207.566406 C 151.863281 205.820312 151.394531 203.8125 151.542969 201.804688 L 151.542969 176.480469 L 166.238281 176.480469 L 166.238281 168.996094 L 151.636719 168.996094 L 151.636719 156.273438 C 150.59375 156.144531 149.542969 156.074219 148.492188 156.058594 C 146.621094 155.976562 144.765625 156.382812 143.109375 157.226562 C 142.34375 157.859375 141.746094 158.664062 141.363281 159.570312 C 140.980469 160.476562 140.824219 161.457031 140.90625 162.433594 L 140.90625 204.886719 C 140.773438 208.261719 141.953125 211.566406 144.210938 214.125 C 145.796875 215.449219 147.640625 216.445312 149.632812 217.050781 C 151.625 217.652344 153.71875 217.851562 155.792969 217.640625 C 158.019531 217.636719 160.242188 217.429688 162.433594 217.023438 C 164.613281 216.617188 166.726562 215.933594 168.726562 214.988281 Z M 167.246094 208.121094 " fill-opacity="1" fill-rule="nonzero"/><path fill="#5e1d68" d="M 83.660156 207.226562 L 84.601562 207.871094 L 85.609375 208.488281 C 89.886719 211.03125 94.84375 212.273438 99.84375 212.046875 C 104.84375 211.820312 109.664062 210.144531 113.683594 207.226562 C 118.148438 204.007812 121.382812 199.421875 122.875 194.191406 C 123.667969 191.671875 124.019531 189.035156 123.910156 186.398438 C 123.691406 181.769531 122.140625 177.296875 119.441406 173.492188 C 115.246094 167.351562 109.816406 162.113281 103.484375 158.089844 C 98.5625 154.628906 93.375 151.539062 87.96875 148.847656 C 88.566406 152.671875 88.234375 156.582031 86.996094 160.261719 C 85.761719 163.9375 83.660156 167.277344 80.859375 170.011719 C 78.515625 172.300781 76.660156 175.015625 75.394531 178.007812 C 74.125 181 73.472656 184.207031 73.472656 187.445312 C 73.472656 190.6875 74.125 193.894531 75.394531 196.882812 C 76.660156 199.875 78.515625 202.59375 80.859375 204.882812 C 81.703125 205.726562 82.621094 206.5 83.597656 207.195312 " fill-opacity="1" fill-rule="nonzero"/><path fill="#80217e" d="M 122.9375 194.257812 C 123.71875 191.710938 124.046875 189.054688 123.910156 186.402344 C 123.722656 182.453125 122.570312 178.605469 120.542969 175.1875 C 122.6875 178.929688 123.523438 183.253906 122.921875 187.503906 C 122.320312 191.753906 120.3125 195.695312 117.207031 198.722656 C 113.339844 202.496094 108.097656 204.617188 102.636719 204.617188 C 97.175781 204.617188 91.933594 202.496094 88.066406 198.722656 C 80.101562 190.898438 81.046875 181.226562 87.40625 171.277344 C 87.875 170.503906 89.355469 168.195312 89.828125 167.269531 C 91.371094 164.382812 92.023438 161.113281 91.699219 157.871094 C 91.375 154.625 90.089844 151.542969 88.003906 149.003906 C 88.570312 152.808594 88.21875 156.6875 86.976562 160.335938 C 85.734375 163.984375 83.640625 167.296875 80.859375 170.011719 C 78.515625 172.300781 76.660156 175.019531 75.394531 178.011719 C 74.125 181.003906 73.472656 184.210938 73.472656 187.449219 C 73.472656 190.6875 74.125 193.894531 75.394531 196.886719 C 76.660156 199.878906 78.515625 202.597656 80.859375 204.886719 C 81.710938 205.71875 82.625 206.492188 83.597656 207.195312 L 84.539062 207.84375 L 85.546875 208.460938 C 89.824219 211.003906 94.78125 212.242188 99.78125 212.019531 C 104.78125 211.792969 109.597656 210.113281 113.621094 207.195312 C 118.085938 203.980469 121.320312 199.390625 122.808594 194.164062 " fill-opacity="1" fill-rule="nonzero"/><g clip-path="url(#f2b7ecdca5)"><path fill="#a22223" d="M 43.089844 207.65625 L 42.429688 208.582031 C 42.210938 208.921875 41.988281 209.230469 41.800781 209.566406 C 39.785156 212.808594 38.5625 216.460938 38.230469 220.242188 C 37.894531 224.023438 38.453125 227.828125 39.867188 231.359375 C 41.28125 234.890625 43.507812 238.058594 46.375 240.609375 C 49.246094 243.164062 52.675781 245.03125 56.402344 246.074219 C 59.039062 246.824219 61.78125 247.136719 64.523438 246.996094 C 69.25 246.78125 73.820312 245.265625 77.710938 242.621094 C 83.988281 238.523438 89.34375 233.207031 93.445312 227.003906 C 96.980469 222.183594 100.136719 217.105469 102.886719 211.816406 C 98.917969 212.46875 94.84375 212.179688 91.011719 210.976562 C 87.175781 209.769531 83.695312 207.679688 80.855469 204.886719 C 78.519531 202.59375 75.742188 200.777344 72.683594 199.535156 C 69.628906 198.296875 66.351562 197.65625 63.042969 197.65625 C 59.734375 197.65625 56.460938 198.296875 53.402344 199.535156 C 50.347656 200.777344 47.570312 202.59375 45.230469 204.886719 C 44.394531 205.734375 43.605469 206.628906 42.871094 207.566406 " fill-opacity="1" fill-rule="nonzero"/></g><g clip-path="url(#89f9c9ee6c)"><path fill="#c20e1a" d="M 56.183594 246.132812 C 58.820312 246.886719 61.5625 247.199219 64.304688 247.058594 C 68.339844 246.882812 72.269531 245.753906 75.761719 243.761719 C 71.9375 245.867188 67.519531 246.6875 63.175781 246.097656 C 58.832031 245.507812 54.808594 243.539062 51.714844 240.496094 C 47.859375 236.710938 45.695312 231.582031 45.695312 226.234375 C 45.695312 220.886719 47.859375 215.757812 51.714844 211.96875 C 59.710938 204.175781 69.589844 205.101562 79.757812 211.324219 C 80.542969 211.785156 82.902344 213.265625 83.847656 213.726562 C 86.804688 215.230469 90.140625 215.859375 93.457031 215.535156 C 96.769531 215.210938 99.917969 213.953125 102.511719 211.910156 C 98.589844 212.488281 94.589844 212.15625 90.824219 210.933594 C 87.0625 209.714844 83.648438 207.640625 80.859375 204.886719 C 78.519531 202.59375 75.742188 200.777344 72.6875 199.535156 C 69.628906 198.296875 66.355469 197.65625 63.046875 197.65625 C 59.738281 197.65625 56.460938 198.296875 53.402344 199.535156 C 50.347656 200.777344 47.570312 202.59375 45.234375 204.886719 C 44.394531 205.734375 43.605469 206.628906 42.871094 207.566406 L 42.210938 208.488281 C 41.992188 208.828125 41.769531 209.136719 41.582031 209.476562 C 39.566406 212.714844 38.34375 216.371094 38.011719 220.148438 C 37.675781 223.929688 38.234375 227.734375 39.648438 231.265625 C 41.0625 234.800781 43.289062 237.964844 46.15625 240.519531 C 49.027344 243.070312 52.457031 244.9375 56.183594 245.980469 " fill-opacity="1" fill-rule="nonzero"/></g><g clip-path="url(#79529fd924)"><path fill="#97ae31" d="M 83.21875 167.300781 C 83.46875 166.992188 83.65625 166.683594 83.878906 166.378906 C 84.128906 166.039062 84.320312 165.730469 84.539062 165.390625 C 86.566406 162.152344 87.800781 158.496094 88.148438 154.714844 C 88.492188 150.929688 87.941406 147.117188 86.53125 143.578125 C 85.125 140.039062 82.902344 136.863281 80.03125 134.304688 C 77.164062 131.746094 73.730469 129.871094 70 128.824219 C 67.398438 128.0625 64.683594 127.738281 61.972656 127.867188 C 57.246094 128.085938 52.675781 129.601562 48.789062 132.242188 C 42.515625 136.351562 37.160156 141.667969 33.050781 147.863281 C 29.53125 152.691406 26.375 157.769531 23.609375 163.050781 C 27.527344 162.453125 31.53125 162.769531 35.300781 163.972656 C 39.066406 165.179688 42.492188 167.238281 45.292969 169.980469 C 47.632812 172.273438 50.410156 174.089844 53.464844 175.332031 C 56.523438 176.570312 59.796875 177.210938 63.105469 177.210938 C 66.414062 177.210938 69.691406 176.570312 72.75 175.332031 C 75.804688 174.089844 78.582031 172.273438 80.921875 169.980469 C 81.777344 169.140625 82.574219 168.246094 83.3125 167.300781 " fill-opacity="1" fill-rule="nonzero"/><path fill="#a9c336" d="M 70 128.824219 C 67.402344 128.0625 64.6875 127.738281 61.976562 127.867188 C 57.949219 128.042969 54.027344 129.175781 50.550781 131.164062 C 54.371094 129.066406 58.789062 128.253906 63.125 128.847656 C 67.464844 129.445312 71.480469 131.417969 74.5625 134.460938 C 78.417969 138.25 80.585938 143.378906 80.585938 148.726562 C 80.585938 154.070312 78.417969 159.199219 74.5625 162.988281 C 66.601562 170.78125 56.6875 169.859375 46.554688 163.636719 C 45.765625 163.171875 43.40625 161.695312 42.464844 161.261719 C 39.507812 159.75 36.164062 159.113281 32.84375 159.429688 C 29.523438 159.746094 26.371094 161.003906 23.769531 163.050781 C 27.667969 162.476562 31.652344 162.808594 35.394531 164.019531 C 39.140625 165.226562 42.542969 167.28125 45.328125 170.011719 C 47.664062 172.304688 50.441406 174.121094 53.5 175.363281 C 56.554688 176.601562 59.832031 177.238281 63.140625 177.238281 C 66.449219 177.238281 69.726562 176.601562 72.78125 175.363281 C 75.835938 174.121094 78.613281 172.304688 80.953125 170.011719 C 81.808594 169.171875 82.609375 168.277344 83.34375 167.332031 L 84.039062 166.40625 C 84.257812 166.070312 84.476562 165.761719 84.667969 165.421875 C 86.699219 162.171875 87.933594 158.507812 88.273438 154.714844 C 88.617188 150.917969 88.054688 147.097656 86.632812 143.550781 C 85.214844 140.007812 82.972656 136.832031 80.085938 134.273438 C 77.199219 131.71875 73.746094 129.855469 70 128.824219 Z M 70 128.824219 " fill-opacity="1" fill-rule="nonzero"/></g><path fill="#eab618" d="M 42.558594 167.917969 L 41.613281 167.238281 L 40.636719 166.625 C 37.332031 164.613281 33.597656 163.378906 29.722656 163.019531 C 25.847656 162.660156 21.941406 163.1875 18.3125 164.550781 C 14.679688 165.917969 11.421875 168.09375 8.789062 170.898438 C 6.160156 173.707031 4.230469 177.074219 3.15625 180.734375 C 2.363281 183.316406 2.035156 186.015625 2.179688 188.710938 C 2.375 193.40625 3.933594 197.949219 6.679688 201.804688 C 10.890625 207.941406 16.328125 213.183594 22.667969 217.207031 C 27.613281 220.65625 32.808594 223.746094 38.214844 226.449219 C 37.601562 222.609375 37.929688 218.679688 39.164062 214.984375 C 40.402344 211.292969 42.511719 207.9375 45.328125 205.191406 C 47.683594 202.902344 49.550781 200.179688 50.828125 197.179688 C 52.101562 194.179688 52.757812 190.960938 52.757812 187.710938 C 52.757812 184.460938 52.101562 181.242188 50.828125 178.242188 C 49.550781 175.242188 47.683594 172.519531 45.328125 170.226562 C 44.476562 169.390625 43.558594 168.617188 42.589844 167.917969 " fill-opacity="1" fill-rule="nonzero"/><path fill="#f7d70e" d="M 3.15625 180.734375 C 2.363281 183.316406 2.035156 186.015625 2.179688 188.710938 C 2.367188 192.660156 3.523438 196.503906 5.546875 199.925781 C 3.394531 196.179688 2.554688 191.84375 3.164062 187.585938 C 3.773438 183.328125 5.792969 179.382812 8.914062 176.359375 C 12.789062 172.582031 18.035156 170.464844 23.5 170.464844 C 28.96875 170.464844 34.214844 172.582031 38.089844 176.359375 C 46.082031 184.183594 45.136719 193.917969 38.78125 203.867188 C 38.277344 204.636719 36.765625 206.949219 36.324219 207.871094 C 34.738281 210.789062 34.070312 214.101562 34.398438 217.390625 C 34.730469 220.679688 36.046875 223.796875 38.183594 226.355469 C 37.59375 222.535156 37.929688 218.632812 39.164062 214.960938 C 40.398438 211.289062 42.5 207.953125 45.296875 205.222656 C 47.648438 202.933594 49.519531 200.210938 50.796875 197.210938 C 52.070312 194.207031 52.726562 190.992188 52.726562 187.742188 C 52.726562 184.492188 52.070312 181.273438 50.796875 178.273438 C 49.519531 175.273438 47.648438 172.550781 45.296875 170.257812 C 44.445312 169.421875 43.527344 168.648438 42.558594 167.949219 L 41.613281 167.269531 L 40.636719 166.652344 C 37.335938 164.644531 33.601562 163.410156 29.730469 163.046875 C 25.855469 162.6875 21.953125 163.207031 18.320312 164.570312 C 14.6875 165.9375 11.429688 168.105469 8.800781 170.910156 C 6.167969 173.714844 4.234375 177.074219 3.15625 180.734375 Z M 3.15625 180.734375 " fill-opacity="1" fill-rule="nonzero"/></svg>